<mxfile host="app.diagrams.net" agent="Mozilla/5.0 (Windows NT 10.0; Win64; x64) AppleWebKit/537.36 (KHTML, like Gecko) Chrome/135.0.0.0 Safari/537.36" version="26.1.1">
  <diagram name="Page-1" id="fjbJWDlfLcNGqHqUYO34">
    <mxGraphModel dx="1259" dy="655" grid="1" gridSize="10" guides="1" tooltips="1" connect="1" arrows="1" fold="1" page="1" pageScale="1" pageWidth="850" pageHeight="1100" math="0" shadow="0">
      <root>
        <mxCell id="0" />
        <mxCell id="1" parent="0" />
        <mxCell id="qvgFBvXe_zUQoaFY5pT4-12" value="" style="rounded=0;whiteSpace=wrap;html=1;" vertex="1" parent="1">
          <mxGeometry x="531.49" y="390" width="148.51" height="280" as="geometry" />
        </mxCell>
        <mxCell id="qvgFBvXe_zUQoaFY5pT4-1" value="" style="fontColor=#0066CC;verticalAlign=top;verticalLabelPosition=bottom;labelPosition=center;align=center;html=1;outlineConnect=0;fillColor=#CCCCCC;strokeColor=#6881B3;gradientColor=none;gradientDirection=north;strokeWidth=2;shape=mxgraph.networks.laptop;" vertex="1" parent="1">
          <mxGeometry x="80" y="170" width="180" height="150" as="geometry" />
        </mxCell>
        <mxCell id="qvgFBvXe_zUQoaFY5pT4-2" value="" style="image;aspect=fixed;html=1;points=[];align=center;fontSize=12;image=img/lib/azure2/general/Mobile.svg;" vertex="1" parent="1">
          <mxGeometry x="550" y="160" width="101.49" height="170" as="geometry" />
        </mxCell>
        <mxCell id="qvgFBvXe_zUQoaFY5pT4-3" style="edgeStyle=orthogonalEdgeStyle;rounded=0;orthogonalLoop=1;jettySize=auto;html=1;entryX=0;entryY=0.5;entryDx=0;entryDy=0;entryPerimeter=0;flowAnimation=1;strokeWidth=2;" edge="1" parent="1" source="qvgFBvXe_zUQoaFY5pT4-1" target="qvgFBvXe_zUQoaFY5pT4-2">
          <mxGeometry relative="1" as="geometry" />
        </mxCell>
        <mxCell id="qvgFBvXe_zUQoaFY5pT4-4" value="&lt;b&gt;Server&lt;/b&gt;" style="text;html=1;align=center;verticalAlign=middle;resizable=0;points=[];autosize=1;strokeColor=none;fillColor=none;" vertex="1" parent="1">
          <mxGeometry x="570.74" y="350" width="60" height="30" as="geometry" />
        </mxCell>
        <mxCell id="qvgFBvXe_zUQoaFY5pT4-5" value="&lt;b&gt;Client&lt;/b&gt;" style="text;html=1;align=center;verticalAlign=middle;resizable=0;points=[];autosize=1;strokeColor=none;fillColor=none;" vertex="1" parent="1">
          <mxGeometry x="140" y="330" width="60" height="30" as="geometry" />
        </mxCell>
        <mxCell id="qvgFBvXe_zUQoaFY5pT4-6" value="" style="dashed=0;outlineConnect=0;html=1;align=center;labelPosition=center;verticalLabelPosition=bottom;verticalAlign=top;shape=mxgraph.webicons.facebook;fillColor=#6294E4;gradientColor=#1A2665" vertex="1" parent="1">
          <mxGeometry x="550" y="470" width="102.4" height="102.4" as="geometry" />
        </mxCell>
        <mxCell id="qvgFBvXe_zUQoaFY5pT4-8" style="edgeStyle=orthogonalEdgeStyle;rounded=0;orthogonalLoop=1;jettySize=auto;html=1;" edge="1" parent="1" source="qvgFBvXe_zUQoaFY5pT4-7" target="qvgFBvXe_zUQoaFY5pT4-6">
          <mxGeometry relative="1" as="geometry" />
        </mxCell>
        <mxCell id="qvgFBvXe_zUQoaFY5pT4-7" value="" style="fontColor=#0066CC;verticalAlign=top;verticalLabelPosition=bottom;labelPosition=center;align=center;html=1;outlineConnect=0;fillColor=#CCCCCC;strokeColor=#6881B3;gradientColor=none;gradientDirection=north;strokeWidth=2;shape=mxgraph.networks.laptop;" vertex="1" parent="1">
          <mxGeometry x="70" y="446.2" width="180" height="150" as="geometry" />
        </mxCell>
        <mxCell id="qvgFBvXe_zUQoaFY5pT4-9" value="&lt;b&gt;Server&lt;/b&gt;" style="text;html=1;align=center;verticalAlign=middle;resizable=0;points=[];autosize=1;strokeColor=none;fillColor=none;" vertex="1" parent="1">
          <mxGeometry x="570.74" y="580" width="60" height="30" as="geometry" />
        </mxCell>
        <mxCell id="qvgFBvXe_zUQoaFY5pT4-10" value="" style="verticalLabelPosition=bottom;sketch=0;aspect=fixed;html=1;verticalAlign=top;strokeColor=none;align=center;outlineConnect=0;shape=mxgraph.citrix.browser;" vertex="1" parent="1">
          <mxGeometry x="140" y="460" width="47.5" height="72.5" as="geometry" />
        </mxCell>
        <mxCell id="qvgFBvXe_zUQoaFY5pT4-11" value="&lt;b&gt;Client&lt;/b&gt;" style="text;html=1;align=center;verticalAlign=middle;resizable=0;points=[];autosize=1;strokeColor=none;fillColor=none;" vertex="1" parent="1">
          <mxGeometry x="130" y="610" width="60" height="30" as="geometry" />
        </mxCell>
        <mxCell id="qvgFBvXe_zUQoaFY5pT4-13" value="&lt;b&gt;Linux Server&lt;/b&gt;" style="text;html=1;align=center;verticalAlign=middle;resizable=0;points=[];autosize=1;strokeColor=none;fillColor=none;" vertex="1" parent="1">
          <mxGeometry x="555.74" y="400" width="100" height="30" as="geometry" />
        </mxCell>
        <mxCell id="qvgFBvXe_zUQoaFY5pT4-14" value="&lt;b&gt;AWS Account&lt;/b&gt;" style="points=[[0,0],[0.25,0],[0.5,0],[0.75,0],[1,0],[1,0.25],[1,0.5],[1,0.75],[1,1],[0.75,1],[0.5,1],[0.25,1],[0,1],[0,0.75],[0,0.5],[0,0.25]];outlineConnect=0;gradientColor=none;html=1;whiteSpace=wrap;fontSize=12;fontStyle=0;container=1;pointerEvents=0;collapsible=0;recursiveResize=0;shape=mxgraph.aws4.group;grIcon=mxgraph.aws4.group_account;strokeColor=#CD2264;fillColor=none;verticalAlign=top;align=left;spacingLeft=30;fontColor=#CD2264;dashed=0;strokeWidth=2;" vertex="1" parent="1">
          <mxGeometry x="520" y="750" width="260" height="270" as="geometry" />
        </mxCell>
        <mxCell id="qvgFBvXe_zUQoaFY5pT4-15" value="" style="sketch=0;pointerEvents=1;shadow=0;dashed=0;html=1;strokeColor=none;fillColor=#005F4B;labelPosition=center;verticalLabelPosition=bottom;verticalAlign=top;align=center;outlineConnect=0;shape=mxgraph.veeam2.linux_server;" vertex="1" parent="qvgFBvXe_zUQoaFY5pT4-14">
          <mxGeometry x="150" y="60" width="91.12" height="130" as="geometry" />
        </mxCell>
        <mxCell id="qvgFBvXe_zUQoaFY5pT4-17" style="edgeStyle=orthogonalEdgeStyle;rounded=0;orthogonalLoop=1;jettySize=auto;html=1;flowAnimation=1;strokeWidth=2;" edge="1" parent="qvgFBvXe_zUQoaFY5pT4-14" source="qvgFBvXe_zUQoaFY5pT4-16" target="qvgFBvXe_zUQoaFY5pT4-15">
          <mxGeometry relative="1" as="geometry" />
        </mxCell>
        <mxCell id="qvgFBvXe_zUQoaFY5pT4-16" value="" style="image;html=1;image=img/lib/clip_art/networking/Firewall_02_128x128.png" vertex="1" parent="qvgFBvXe_zUQoaFY5pT4-14">
          <mxGeometry x="10" y="85" width="80" height="80" as="geometry" />
        </mxCell>
        <mxCell id="qvgFBvXe_zUQoaFY5pT4-18" value="&lt;b&gt;Firewall&lt;/b&gt;" style="text;html=1;align=center;verticalAlign=middle;resizable=0;points=[];autosize=1;strokeColor=none;fillColor=none;" vertex="1" parent="qvgFBvXe_zUQoaFY5pT4-14">
          <mxGeometry x="15" y="180" width="70" height="30" as="geometry" />
        </mxCell>
        <mxCell id="qvgFBvXe_zUQoaFY5pT4-22" value="&lt;b&gt;22&lt;/b&gt;" style="text;html=1;align=center;verticalAlign=middle;resizable=0;points=[];autosize=1;strokeColor=none;fillColor=none;" vertex="1" parent="qvgFBvXe_zUQoaFY5pT4-14">
          <mxGeometry x="30" y="55" width="40" height="30" as="geometry" />
        </mxCell>
        <mxCell id="qvgFBvXe_zUQoaFY5pT4-20" style="edgeStyle=orthogonalEdgeStyle;rounded=0;orthogonalLoop=1;jettySize=auto;html=1;strokeWidth=2;flowAnimation=1;" edge="1" parent="1" source="qvgFBvXe_zUQoaFY5pT4-19" target="qvgFBvXe_zUQoaFY5pT4-16">
          <mxGeometry relative="1" as="geometry" />
        </mxCell>
        <mxCell id="qvgFBvXe_zUQoaFY5pT4-19" value="" style="points=[[0.35,0,0],[0.98,0.51,0],[1,0.71,0],[0.67,1,0],[0,0.795,0],[0,0.65,0]];verticalLabelPosition=bottom;sketch=0;html=1;verticalAlign=top;aspect=fixed;align=center;pointerEvents=1;shape=mxgraph.cisco19.user;fillColor=#005073;strokeColor=none;" vertex="1" parent="1">
          <mxGeometry x="105" y="820" width="110" height="110" as="geometry" />
        </mxCell>
        <mxCell id="qvgFBvXe_zUQoaFY5pT4-21" value="&lt;a style=&quot;box-sizing: border-box; font-family: &amp;quot;Open Sans&amp;quot;, sans-serif; color: rgb(255, 255, 255); background-color: rgb(45, 88, 127); transition: 0.2s ease-in-out; outline: 0px; font-size: 22px; font-weight: 700; text-align: start; text-wrap-mode: wrap;&quot; href=&quot;https://whatismyipaddress.com/ip/103.149.59.114&quot;&gt;103.149.59.114&lt;/a&gt;" style="text;html=1;align=center;verticalAlign=middle;resizable=0;points=[];autosize=1;strokeColor=none;fillColor=none;" vertex="1" parent="1">
          <mxGeometry x="70" y="940" width="180" height="40" as="geometry" />
        </mxCell>
        <mxCell id="qvgFBvXe_zUQoaFY5pT4-23" value="" style="html=1;verticalLabelPosition=bottom;align=center;labelBackgroundColor=#ffffff;verticalAlign=top;strokeWidth=2;strokeColor=#0080F0;shadow=0;dashed=0;shape=mxgraph.ios7.icons.bag;" vertex="1" parent="1">
          <mxGeometry x="560" y="1100" width="180" height="240" as="geometry" />
        </mxCell>
        <mxCell id="qvgFBvXe_zUQoaFY5pT4-24" value="" style="sketch=0;html=1;aspect=fixed;strokeColor=none;shadow=0;fillColor=#3B8DF1;verticalAlign=top;labelPosition=center;verticalLabelPosition=bottom;shape=mxgraph.gcp2.lock" vertex="1" parent="1">
          <mxGeometry x="618.8" y="1160" width="62.4" height="80" as="geometry" />
        </mxCell>
        <mxCell id="qvgFBvXe_zUQoaFY5pT4-25" value="" style="image;sketch=0;aspect=fixed;html=1;points=[];align=center;fontSize=12;image=img/lib/mscae/Key_Vaults.svg;" vertex="1" parent="1">
          <mxGeometry x="200" y="1165" width="91.2" height="95" as="geometry" />
        </mxCell>
        <mxCell id="qvgFBvXe_zUQoaFY5pT4-26" style="edgeStyle=orthogonalEdgeStyle;rounded=0;orthogonalLoop=1;jettySize=auto;html=1;entryX=0.542;entryY=0.684;entryDx=0;entryDy=0;entryPerimeter=0;flowAnimation=1;strokeWidth=2;" edge="1" parent="1" source="qvgFBvXe_zUQoaFY5pT4-25" target="qvgFBvXe_zUQoaFY5pT4-24">
          <mxGeometry relative="1" as="geometry" />
        </mxCell>
        <mxCell id="qvgFBvXe_zUQoaFY5pT4-28" value="" style="rounded=0;whiteSpace=wrap;html=1;fillColor=#dae8fc;gradientColor=#7ea6e0;strokeColor=#6c8ebf;" vertex="1" parent="1">
          <mxGeometry x="561.2" y="1390" width="178.8" height="280" as="geometry" />
        </mxCell>
        <mxCell id="qvgFBvXe_zUQoaFY5pT4-29" value="&lt;b&gt;Public Key&lt;/b&gt;" style="ellipse;whiteSpace=wrap;html=1;aspect=fixed;fillColor=#ffcd28;gradientColor=#ffa500;strokeColor=#d79b00;" vertex="1" parent="1">
          <mxGeometry x="610" y="1470" width="80" height="80" as="geometry" />
        </mxCell>
        <mxCell id="qvgFBvXe_zUQoaFY5pT4-31" value="" style="sketch=0;aspect=fixed;pointerEvents=1;shadow=0;dashed=0;html=1;strokeColor=none;labelPosition=center;verticalLabelPosition=bottom;verticalAlign=top;align=center;fillColor=#00188D;shape=mxgraph.azure.laptop" vertex="1" parent="1">
          <mxGeometry x="20" y="1410" width="333.33" height="200" as="geometry" />
        </mxCell>
        <mxCell id="qvgFBvXe_zUQoaFY5pT4-33" style="edgeStyle=orthogonalEdgeStyle;rounded=0;orthogonalLoop=1;jettySize=auto;html=1;" edge="1" parent="1" source="qvgFBvXe_zUQoaFY5pT4-32" target="qvgFBvXe_zUQoaFY5pT4-29">
          <mxGeometry relative="1" as="geometry" />
        </mxCell>
        <mxCell id="qvgFBvXe_zUQoaFY5pT4-32" value="&lt;b&gt;Private Key&lt;/b&gt;" style="rounded=0;whiteSpace=wrap;html=1;fillColor=#f8cecc;gradientColor=#ea6b66;strokeColor=#b85450;" vertex="1" parent="1">
          <mxGeometry x="140" y="1480" width="120" height="60" as="geometry" />
        </mxCell>
      </root>
    </mxGraphModel>
  </diagram>
</mxfile>
